<svg xmlns="http://www.w3.org/2000/svg" width="55" height="55" viewBox="0 0 55 55"><defs><style>.a{fill:none;}.b{fill:#93358d;}</style></defs><path class="a" d="M0,0H55V55H0Z"/><path class="b" d="M9.167,8.333h41.25V4H9.167A4.477,4.477,0,0,0,4.583,8.333V32.167H0v6.5H32.083v-6.5H9.167Zm43.542,4.333H38.958a2.238,2.238,0,0,0-2.292,2.167V36.5a2.238,2.238,0,0,0,2.292,2.167h13.75A2.238,2.238,0,0,0,55,36.5V14.833A2.238,2.238,0,0,0,52.708,12.667Zm-2.292,19.5H41.25V17h9.167Z" transform="translate(0 6.167)"/></svg>