<svg xmlns="http://www.w3.org/2000/svg" viewBox="0 0 249.38 141.38"><defs><style>.cls-1,.cls-4,.cls-5{fill:none;}.cls-1,.cls-2,.cls-4,.cls-5{stroke:#fff;stroke-miterlimit:10;}.cls-1,.cls-5{stroke-width:1.04px;}.cls-2{fill:#2b36ad;}.cls-2,.cls-4{stroke-width:2.08px;}.cls-3{fill:#fff;}.cls-5{stroke-linecap:round;}.cls-6{font-size:11.46px;fill:#93358d;font-family:Montserrat-SemiBold, Montserrat;font-weight:600;letter-spacing:-0.02em;}</style></defs><g id="Layer_1" data-name="Layer 1"><rect class="cls-1" x="13.23" y="15.15" width="185.33" height="84.97" rx="4.27"/><path class="cls-2" d="M198.87,29a45.2,45.2,0,0,0-42,28.67,45.16,45.16,0,0,0,84.07,0A45.18,45.18,0,0,0,198.87,29Z"/><path class="cls-3" d="M40.38,59.38l-.9-.82c-3.22-2.93-5.34-4.85-5.34-7.21a3.39,3.39,0,0,1,3.43-3.44,3.76,3.76,0,0,1,2.81,1.3,3.8,3.8,0,0,1,2.82-1.3,3.4,3.4,0,0,1,3.43,3.44c0,2.36-2.12,4.28-5.34,7.21Z"/><path class="cls-4" d="M198.87,75.73A18.1,18.1,0,1,1,217,57.64,18.12,18.12,0,0,1,198.87,75.73Zm0-26.23A8.14,8.14,0,1,0,207,57.64,8.15,8.15,0,0,0,198.87,49.5Z"/><line class="cls-5" x1="34.14" y1="35.18" x2="97.84" y2="35.18"/><path class="cls-3" d="M59.14,59.38l-.91-.82c-3.22-2.93-5.34-4.85-5.34-7.21a3.4,3.4,0,0,1,3.43-3.44,3.78,3.78,0,0,1,2.82,1.3A3.76,3.76,0,0,1,62,47.91a3.4,3.4,0,0,1,3.44,3.44c0,2.36-2.13,4.28-5.35,7.21Z"/><path class="cls-3" d="M77.89,59.38,77,58.56c-3.22-2.93-5.34-4.85-5.34-7.21a3.4,3.4,0,0,1,3.44-3.44,3.78,3.78,0,0,1,2.81,1.3,3.76,3.76,0,0,1,2.81-1.3,3.4,3.4,0,0,1,3.44,3.44c0,2.36-2.13,4.28-5.34,7.21Z"/><path class="cls-5" d="M96.64,59.38l-.9-.82c-3.22-2.93-5.35-4.85-5.35-7.21a3.4,3.4,0,0,1,3.44-3.44,3.76,3.76,0,0,1,2.81,1.3,3.78,3.78,0,0,1,2.81-1.3,3.4,3.4,0,0,1,3.44,3.44c0,2.36-2.12,4.28-5.34,7.21Z"/><path class="cls-5" d="M115.37,59.38l-.9-.82c-3.22-2.93-5.34-4.85-5.34-7.21a3.39,3.39,0,0,1,3.43-3.44,3.76,3.76,0,0,1,2.81,1.3,3.8,3.8,0,0,1,2.82-1.3,3.4,3.4,0,0,1,3.43,3.44c0,2.36-2.12,4.28-5.34,7.21Z"/><line class="cls-5" x1="34.14" y1="70.72" x2="142.19" y2="70.72"/><line class="cls-5" x1="34.14" y1="85.08" x2="142.19" y2="85.08"/><rect class="cls-3" x="68.61" y="115.66" width="69.76" height="17.39" rx="8.69"/><text class="cls-6" transform="translate(79.11 128.97)">INTERÉS</text></g></svg>