<svg xmlns="http://www.w3.org/2000/svg" viewBox="0 0 306.33 131.56"><defs><style>.cls-1,.cls-3,.cls-4,.cls-5,.cls-6{fill:none;}.cls-1,.cls-2,.cls-3,.cls-4,.cls-5,.cls-6{stroke:#fff;stroke-miterlimit:10;}.cls-1,.cls-5{stroke-width:1.04px;}.cls-2{fill:#2b36ad;}.cls-2,.cls-3,.cls-4{stroke-width:2.08px;}.cls-4,.cls-5,.cls-6{stroke-linecap:round;}.cls-6{stroke-width:0.52px;}.cls-7{fill:#fff;}.cls-8{font-size:11.46px;fill:#93358d;font-family:Montserrat-SemiBold, Montserrat;font-weight:600;letter-spacing:-0.03em;}.cls-9{letter-spacing:-0.02em;}.cls-10{letter-spacing:-0.03em;}</style></defs><g id="Layer_1" data-name="Layer 1"><rect class="cls-1" x="65.8" y="11.16" width="185.33" height="84.97" rx="4.27"/><path class="cls-2" d="M247.9,69.87V80.72a8.42,8.42,0,0,0,8.41,8.41h7.2a8.41,8.41,0,0,0,8.41-8.41V69.87a24,24,0,1,0-24,0Z"/><line class="cls-3" x1="247.9" y1="69.87" x2="271.92" y2="69.87"/><line class="cls-4" x1="229.52" y1="49.19" x2="219.84" y2="49.19"/><line class="cls-4" x1="299.29" y1="49.19" x2="289.6" y2="49.19"/><line class="cls-4" x1="292.13" y1="22.78" x2="285.28" y2="29.63"/><line class="cls-4" x1="227.67" y1="22.78" x2="234.52" y2="29.63"/><line class="cls-5" x1="254.76" y1="69.87" x2="252.65" y2="53.11"/><line class="cls-5" x1="264.45" y1="69.87" x2="266.69" y2="53.11"/><path class="cls-6" d="M252.8,53.23c1.36,0,1.36,4.16,2.72,4.16s1.36-4.16,2.72-4.16,1.36,4.16,2.72,4.16,1.36-4.16,2.72-4.16,1.36,4.16,2.72,4.16"/><line class="cls-4" x1="258.3" y1="7.35" x2="258.3" y2="17.18"/><rect class="cls-5" x="81.16" y="24.64" width="118.75" height="14.6" rx="7.3"/><circle class="cls-5" cx="90.28" cy="31.12" r="2.69"/><line class="cls-5" x1="92.28" y1="33.11" x2="94.48" y2="35.31"/><line class="cls-5" x1="82.95" y1="55.54" x2="199.91" y2="55.54"/><line class="cls-5" x1="82.95" y1="64.92" x2="186.03" y2="64.92"/><path class="cls-5" d="M88.19,78.24h26.58a5,5,0,0,1,5,5V96.13a0,0,0,0,1,0,0H83.23a0,0,0,0,1,0,0V83.2A5,5,0,0,1,88.19,78.24Z"/><path class="cls-5" d="M128.42,78.24H155a5,5,0,0,1,5,5V96.13a0,0,0,0,1,0,0H123.46a0,0,0,0,1,0,0V83.2A5,5,0,0,1,128.42,78.24Z"/><path class="cls-5" d="M168.65,78.24h26.58a5,5,0,0,1,5,5V96.13a0,0,0,0,1,0,0H163.69a0,0,0,0,1,0,0V83.2A5,5,0,0,1,168.65,78.24Z"/><rect class="cls-7" x="6.79" y="105.76" width="125.1" height="17.39" rx="8.69"/><text class="cls-8" transform="translate(19.12 119.07)">C<tspan class="cls-9" x="7.93" y="0">ONSIDER</tspan><tspan class="cls-10" x="61.64" y="0">A</tspan><tspan class="cls-9" x="69.88" y="0">CIÓN</tspan></text></g></svg>