<svg xmlns="http://www.w3.org/2000/svg" xmlns:xlink="http://www.w3.org/1999/xlink" viewBox="0 0 249.38 158.07"><defs><style>.cls-1,.cls-4,.cls-5{fill:none;}.cls-1,.cls-3,.cls-4,.cls-5{stroke:#fff;stroke-miterlimit:10;}.cls-1,.cls-5{stroke-width:1.04px;}.cls-2{clip-path:url(#clip-path);}.cls-3{fill:#2b36ad;}.cls-3,.cls-4{stroke-width:2.08px;}.cls-5{stroke-linecap:round;}.cls-6{fill:#fff;}.cls-7{font-size:11.46px;fill:#93358d;font-family:Montserrat-SemiBold, Montserrat;font-weight:600;letter-spacing:-0.03em;}.cls-8{letter-spacing:-0.02em;}.cls-9{letter-spacing:-0.03em;}.cls-10{letter-spacing:-0.02em;}</style><clipPath id="clip-path"><rect class="cls-1" x="33.37" y="-184.55" width="185.33" height="101.55" rx="4.27"/></clipPath></defs><g id="Layer_1" data-name="Layer 1"><g class="cls-2"><path class="cls-1" d="M293.41-298.37a170.75,170.75,0,0,0-146.54,169,170.76,170.76,0,0,0,146.54,169"/></g><rect class="cls-1" x="33.37" y="-184.55" width="185.33" height="101.55" rx="4.27"/><rect class="cls-1" x="45.3" y="15.94" width="185.33" height="90.4" rx="4.27"/><path class="cls-3" d="M17.67,95.4H34.28V38.9H19.67a7.48,7.48,0,0,0-7.48,7.49V89.92A5.48,5.48,0,0,0,17.67,95.4Z"/><path class="cls-3" d="M29.59,38.9h32.2a6.29,6.29,0,0,1,6.29,6.29V91.07a4.33,4.33,0,0,1-4.33,4.33H26.92a4.33,4.33,0,0,1-4.33-4.33V45.9A7,7,0,0,1,29.59,38.9Z"/><path class="cls-3" d="M54.07,38.9V33.38a8.86,8.86,0,0,0-8.86-8.86h0a8.86,8.86,0,0,0-8.86,8.86V38.9Z"/><path class="cls-4" d="M27,38.9V33.38a8.86,8.86,0,0,1,8.86-8.86h0a8.86,8.86,0,0,1,8.86,8.86V38.9"/><rect class="cls-5" x="116.23" y="74.84" width="71.21" height="14.82" rx="7.41"/><path class="cls-6" d="M95.07,86.7a1.48,1.48,0,1,0,1.48,1.48A1.48,1.48,0,0,0,95.07,86.7ZM90.62,74.84v1.49H92.1L94.77,82l-1,1.81a1.49,1.49,0,0,0,1.3,2.2H104V84.48H95.38a.19.19,0,0,1-.18-.19.15.15,0,0,1,0-.09L95.88,83h5.52a1.48,1.48,0,0,0,1.3-.76l2.65-4.81a.68.68,0,0,0,.09-.35.74.74,0,0,0-.74-.74h-11L93,74.84ZM102.48,86.7A1.48,1.48,0,1,0,104,88.18,1.48,1.48,0,0,0,102.48,86.7Z"/><line class="cls-5" x1="90.62" y1="36.02" x2="203.05" y2="36.02"/><line class="cls-5" x1="90.62" y1="45.4" x2="157.77" y2="45.4"/><circle class="cls-6" cx="93.59" cy="58.19" r="2.96"/><circle class="cls-6" cx="107.66" cy="58.19" r="2.96"/><circle class="cls-6" cx="121.72" cy="58.19" r="2.96"/><circle class="cls-5" cx="135.79" cy="58.19" r="2.96"/><circle class="cls-5" cx="149.85" cy="58.19" r="2.96"/><rect class="cls-6" x="169.01" y="125.12" width="69.76" height="17.39" rx="8.69"/><text class="cls-7" transform="translate(176.91 138.43)">C<tspan class="cls-8" x="7.93" y="0">OM</tspan><tspan class="cls-9" x="28.06" y="0">P</tspan><tspan class="cls-10" x="36.04" y="0">RA</tspan></text></g></svg>