<svg xmlns="http://www.w3.org/2000/svg" viewBox="0 0 242.51 160.04"><defs><style>.cls-1,.cls-3,.cls-4,.cls-5{fill:none;}.cls-1,.cls-2,.cls-3,.cls-4,.cls-5,.cls-6{stroke:#fff;stroke-miterlimit:10;}.cls-1,.cls-5,.cls-6{stroke-width:1.04px;}.cls-2,.cls-6{fill:#2b36ad;}.cls-2,.cls-3,.cls-4{stroke-width:2.08px;}.cls-4,.cls-5{stroke-linecap:round;}.cls-7{fill:#fff;}.cls-8{font-size:11.46px;fill:#93358d;font-family:Montserrat-SemiBold, Montserrat;font-weight:600;letter-spacing:-0.02em;}</style></defs><g id="Layer_1" data-name="Layer 1"><rect class="cls-1" x="70.82" y="15.82" width="159.88" height="98.54" rx="4.27"/><path class="cls-2" d="M43.19,92.29V78.22H73.55S84.48,79,84.48,65.4c0-14.41-10.74-13.25-10.74-13.25H43.19V37.88H77.32s21.14,0,21.14,27.2S76.91,92.29,76.91,92.29Z"/><line class="cls-3" x1="51.83" y1="92.29" x2="51.83" y2="78.22"/><line class="cls-3" x1="51.83" y1="52.15" x2="51.83" y2="37.88"/><path class="cls-4" d="M38.38,41.14l-.22.22a5.15,5.15,0,0,0,0,7.28h0"/><path class="cls-4" d="M32.2,38.56l-.36.36a8.71,8.71,0,0,0,0,12.3h0"/><path class="cls-4" d="M26.66,35.93l-.51.51a12.31,12.31,0,0,0,0,17.41h0"/><path class="cls-4" d="M38.38,81.51l-.22.21a5.15,5.15,0,0,0,0,7.28h0"/><path class="cls-4" d="M32.2,78.93l-.36.36a8.7,8.7,0,0,0,0,12.29h0"/><path class="cls-4" d="M26.66,76.3l-.51.51a12.31,12.31,0,0,0,0,17.41h0"/><line class="cls-5" x1="98.46" y1="65.08" x2="118.25" y2="65.08"/><polyline class="cls-5" points="118.25 43.09 118.25 65.08 118.25 85.26 184.8 85.26 184.8 114.35"/><circle class="cls-6" cx="118.25" cy="43.09" r="11.65"/><path class="cls-7" d="M118.25,44.89a4.17,4.17,0,1,0-4.17-4.17A4.17,4.17,0,0,0,118.25,44.89Zm0,2.08c-2.78,0-8.34,1.39-8.34,4.17v1l8.34,2.64L126.58,52v-.85C126.58,48.36,121,47,118.25,47Z"/><line class="cls-5" x1="129.9" y1="43.09" x2="230.7" y2="43.09"/><line class="cls-5" x1="206.61" y1="43.09" x2="206.61" y2="73.95"/><line class="cls-5" x1="165.85" y1="15.82" x2="165.85" y2="43.09"/><circle class="cls-6" cx="206.61" cy="81.51" r="11.65"/><path class="cls-7" d="M206.61,83.31a4.17,4.17,0,1,0-4.17-4.17A4.17,4.17,0,0,0,206.61,83.31Zm0,2.08c-2.78,0-8.33,1.39-8.33,4.17v1l8.33,2.63,8.33-2.76v-.84C214.94,86.78,209.39,85.39,206.61,85.39Z"/><circle class="cls-6" cx="151.52" cy="83.31" r="11.65"/><path class="cls-7" d="M151.52,85.1a4.17,4.17,0,1,0-4.16-4.17A4.17,4.17,0,0,0,151.52,85.1Zm0,2.09c-2.77,0-8.33,1.39-8.33,4.16v1L151.52,95l8.34-2.76v-.85C159.86,88.58,154.3,87.19,151.52,87.19Z"/><circle class="cls-6" cx="165.85" cy="43.09" r="11.65"/><path class="cls-7" d="M165.85,44.89a4.17,4.17,0,1,0-4.16-4.17A4.17,4.17,0,0,0,165.85,44.89Zm0,2.08c-2.77,0-8.33,1.39-8.33,4.17v1l8.33,2.64L174.19,52v-.85C174.19,48.36,168.63,47,165.85,47Z"/><circle class="cls-7" cx="184.8" cy="85.26" r="3.57"/><circle class="cls-7" cx="206.61" cy="43.09" r="3.57"/><circle class="cls-7" cx="118.25" cy="65.08" r="3.57"/><circle class="cls-7" cx="118.25" cy="85.1" r="3.57"/><rect class="cls-7" x="24.6" y="132.16" width="93.9" height="17.39" rx="7.67"/><text class="cls-8" transform="translate(36.92 145.47)">RETENCIÓN</text></g></svg>