<svg xmlns="http://www.w3.org/2000/svg" xmlns:xlink="http://www.w3.org/1999/xlink" viewBox="0 0 303.38 159.05"><defs><style>.cls-1,.cls-4{fill:none;}.cls-1,.cls-3,.cls-4{stroke:#fff;stroke-miterlimit:10;}.cls-1{stroke-width:1.04px;}.cls-2{clip-path:url(#clip-path);}.cls-3{fill:#2b36ad;stroke-width:2.08px;}.cls-4{stroke-width:0.52px;}.cls-5{fill:#fff;}.cls-6{font-size:11.46px;fill:#93358d;font-family:Montserrat-SemiBold, Montserrat;font-weight:600;letter-spacing:-0.02em;}.cls-7{letter-spacing:-0.02em;}.cls-8{letter-spacing:-0.03em;}.cls-9{letter-spacing:-0.03em;}</style><clipPath id="clip-path"><rect class="cls-1" x="53.99" y="241.56" width="185.33" height="101.55" rx="4.27"/></clipPath></defs><g id="Layer_1" data-name="Layer 1"><g class="cls-2"><path class="cls-1" d="M314,127.74a170.75,170.75,0,0,0,0,338.05"/></g><rect class="cls-1" x="53.99" y="241.56" width="185.33" height="101.55" rx="4.27"/><rect class="cls-1" x="27.06" y="49.8" width="185.33" height="90.4" rx="4.27"/><polygon class="cls-3" points="179.39 81.74 183.7 103.83 223.77 110.97 213.9 60.43 179.39 81.74"/><rect class="cls-3" x="218.61" y="54.3" width="12.54" height="59.27" rx="6.27" transform="translate(-11.92 44.65) rotate(-11.05)"/><rect class="cls-3" x="159.31" y="83.68" width="22.45" height="22.5" transform="translate(-15.03 34.44) rotate(-11.05)"/><path class="cls-3" d="M168.22,106.85l9.62-1.88,3.83,19.63a4.9,4.9,0,0,1-3.87,5.74h0a4.9,4.9,0,0,1-5.75-3.87Z"/><path class="cls-3" d="M158.44,91.59l2.25,11.52s-8.82,1.73-10-4.28C149.62,93.31,158.44,91.59,158.44,91.59Z"/><path class="cls-3" d="M232.28,89.13,230,77.61s8.81-1.73,10,4.28C241.09,87.41,232.28,89.13,232.28,89.13Z"/><path class="cls-4" d="M140.35,52c-28,13.9-51.72,13.9-71.51,25.37-12.51,7.25-30.77,35.35-41,61.46"/><circle class="cls-5" cx="67.93" cy="77.92" r="4.1"/><circle class="cls-5" cx="140.35" cy="51.99" r="4.1"/><circle class="cls-5" cx="27.86" cy="138.82" r="4.1"/><circle class="cls-5" cx="107.52" cy="64.14" r="4.1"/><circle class="cls-5" cx="41.41" cy="111.09" r="4.1"/><line class="cls-1" x1="112.98" y1="49.8" x2="112.98" y2="140.2"/><line class="cls-1" x1="95.72" y1="49.8" x2="95.72" y2="140.2"/><line class="cls-1" x1="78.47" y1="49.8" x2="78.47" y2="140.2"/><line class="cls-1" x1="61.21" y1="49.8" x2="61.21" y2="140.2"/><line class="cls-1" x1="43.95" y1="49.8" x2="43.95" y2="140.2"/><line class="cls-1" x1="129.29" y1="49.8" x2="129.29" y2="140.2"/><rect class="cls-5" x="174.33" y="17.24" width="120.7" height="17.39" rx="8.69"/><text class="cls-6" transform="translate(180.92 30.55)">R<tspan class="cls-7" x="8.15" y="0">E</tspan><tspan class="cls-8" x="15.56" y="0">C</tspan><tspan x="23.49" y="0">OMEN</tspan><tspan class="cls-9" x="60.13" y="0">DA</tspan><tspan x="77.49" y="0">CIÓN</tspan></text></g></svg>