<svg xmlns="http://www.w3.org/2000/svg" xmlns:xlink="http://www.w3.org/1999/xlink" viewBox="0 0 246.44 159.05"><defs><style>.cls-1{fill:none;stroke-width:1.04px;}.cls-1,.cls-3{stroke:#fff;stroke-miterlimit:10;}.cls-2{clip-path:url(#clip-path);}.cls-3{fill:#2b36ad;stroke-width:1.43px;}.cls-4{fill:#fff;}.cls-5{font-size:11.46px;fill:#93358d;font-family:Montserrat-SemiBold, Montserrat;font-weight:600;letter-spacing:-0.03em;}.cls-6{letter-spacing:-0.02em;}.cls-7{letter-spacing:-0.03em;}</style><clipPath id="clip-path"><rect class="cls-1" x="44.17" y="45.2" width="185.33" height="101.55" rx="4.27"/></clipPath></defs><g id="Layer_1" data-name="Layer 1"><g class="cls-2"><path class="cls-1" d="M304.21-68.63a170.75,170.75,0,0,0,0,338.05"/><path class="cls-1" d="M236.94,110a29.45,29.45,0,0,0-5.87-5.86l1.38-11.34a2.11,2.11,0,0,0-1.56-2.29l-16.44-4.41A2.11,2.11,0,0,0,212,87.32L207.5,97.84a32.23,32.23,0,0,0-8.05,2.12l-9.09-6.85a2.19,2.19,0,0,0-2.77.24l-12,12a2.14,2.14,0,0,0-.22,2.75l6.84,9.1a31.48,31.48,0,0,0-2.12,8.05l-10.51,4.46a2.14,2.14,0,0,0-1.19,2.49l4.41,16.43a2.13,2.13,0,0,0,2.28,1.57l11.33-1.37a33.42,33.42,0,0,0,2.72,3.14,32.42,32.42,0,0,0,3.15,2.73l-1.37,11.32a2.12,2.12,0,0,0,1.56,2.29l16.44,4.41a2.11,2.11,0,0,0,2.48-1.19l4.47-10.52a32.23,32.23,0,0,0,8.05-2.12l9.1,6.85a2.16,2.16,0,0,0,2.75-.23l12-12a2.16,2.16,0,0,0,.23-2.75l-6.85-9.1a31.29,31.29,0,0,0,2.12-8l10.52-4.47a2.13,2.13,0,0,0,1.19-2.48l-4.41-16.44a2.13,2.13,0,0,0-2.29-1.56ZM222.18,140a14.89,14.89,0,1,1,0-21.06A14.88,14.88,0,0,1,222.18,140Z"/><path class="cls-1" d="M221.84,72.8a1.37,1.37,0,0,0,1.48-1l2.86-10.65a1.38,1.38,0,0,0-.77-1.6l-6.82-2.9a20.24,20.24,0,0,0-1.37-5.21l4.43-5.9a1.38,1.38,0,0,0-.14-1.78L213.71,36a1.38,1.38,0,0,0-1.78-.15L206,40.23a20.77,20.77,0,0,0-5.21-1.37l-2.89-6.81a1.36,1.36,0,0,0-1.61-.77l-10.65,2.85a1.38,1.38,0,0,0-1,1.48l.88,7.34a19.73,19.73,0,0,0-3.8,3.8l-7.33-.88a1.39,1.39,0,0,0-1.49,1l-2.85,10.65a1.38,1.38,0,0,0,.77,1.61L177.65,62A20.24,20.24,0,0,0,179,67.24l-4.43,5.9a1.39,1.39,0,0,0,.15,1.78l7.79,7.8a1.42,1.42,0,0,0,1.79.15l5.9-4.43a20.88,20.88,0,0,0,5.21,1.37l2.9,6.81a1.34,1.34,0,0,0,1.6.77l10.65-2.85a1.37,1.37,0,0,0,1-1.48l-.9-7.35a21.08,21.08,0,0,0,2-1.76,22.35,22.35,0,0,0,1.76-2Zm-16.9-6.65a9.64,9.64,0,1,1,0-13.64A9.64,9.64,0,0,1,204.94,66.15Z"/><line class="cls-1" x1="160.21" y1="70.93" x2="44.17" y2="70.93"/><line class="cls-1" x1="35.24" y1="96.77" x2="157.86" y2="96.77"/><line class="cls-1" x1="159.08" y1="122.5" x2="44.17" y2="122.5"/></g><rect class="cls-1" x="44.17" y="45.2" width="185.33" height="101.55" rx="4.27"/><path class="cls-3" d="M66,99.57a19.72,19.72,0,0,0,0-5.74L72.26,89a1.47,1.47,0,0,0,.35-1.89l-5.89-10.2a1.44,1.44,0,0,0-1.79-.63l-7.33,3a22.07,22.07,0,0,0-5-2.9l-1.1-7.8a1.52,1.52,0,0,0-1.47-1.24H38.27a1.48,1.48,0,0,0-1.45,1.24l-1.11,7.8a21.63,21.63,0,0,0-5,2.9l-7.33-3a1.48,1.48,0,0,0-1.8.63l-5.88,10.2A1.48,1.48,0,0,0,16.08,89l6.21,4.87a19.72,19.72,0,0,0,0,5.74l-6.21,4.87a1.46,1.46,0,0,0-.35,1.88l5.88,10.2a1.46,1.46,0,0,0,1.8.63l7.33-3a22.38,22.38,0,0,0,5,2.9l1.11,7.8a1.47,1.47,0,0,0,1.45,1.23H50.05a1.49,1.49,0,0,0,1.46-1.23l1.1-7.8a22,22,0,0,0,5-2.9l7.33,3a1.47,1.47,0,0,0,1.8-.63l5.89-10.2a1.48,1.48,0,0,0-.36-1.88Z"/><circle class="cls-3" cx="44.17" cy="96.7" r="9.4"/><circle class="cls-1" cx="98.28" cy="58.65" r="3.25"/><rect class="cls-1" x="106.37" y="55.4" width="49.26" height="6.49" rx="3.25"/><circle class="cls-1" cx="148.89" cy="136.4" r="3.25"/><circle class="cls-1" cx="137.5" cy="136.4" r="3.25"/><rect class="cls-1" x="80.15" y="133.15" width="49.26" height="6.49" rx="3.25" transform="translate(209.56 272.79) rotate(180)"/><circle class="cls-1" cx="142.19" cy="111" r="3.25"/><rect class="cls-1" x="105.16" y="107.75" width="28.94" height="6.49" rx="3.25" transform="translate(239.27 222) rotate(-180)"/><rect class="cls-4" x="22.23" y="6.31" width="120.7" height="17.39" rx="8.69"/><text class="cls-5" transform="translate(35.6 19.61)">C<tspan class="cls-6" x="7.93" y="0">ONOCIMIEN</tspan><tspan class="cls-7" x="77.99" y="0">T</tspan><tspan class="cls-6" x="84.55" y="0">O</tspan></text></g></svg>