<svg xmlns="http://www.w3.org/2000/svg" viewBox="0 0 288.71 154.55"><defs><style>.cls-1{fill:#eb8430;}.cls-1,.cls-3,.cls-4,.cls-5{stroke:#fff;stroke-miterlimit:10;}.cls-1,.cls-3,.cls-4{stroke-width:0.93px;}.cls-2,.cls-4{fill:#fff;}.cls-3,.cls-5{fill:none;}.cls-3,.cls-4,.cls-5{stroke-linecap:round;}</style></defs><g id="Layer_1" data-name="Layer 1"><rect class="cls-1" x="67.54" y="-66.62" width="153.62" height="287.78" rx="3.62" transform="translate(67.08 221.63) rotate(-90)"/><rect class="cls-2" x="225.1" y="79.13" width="7.88" height="7.88" rx="0.55" transform="translate(312.1 -145.97) rotate(90)"/><polygon class="cls-2" points="144.35 79.31 140.02 86.82 148.69 86.82 144.35 79.31"/><circle class="cls-2" cx="52.39" cy="83.07" r="3.73"/><line class="cls-3" x1="32.2" y1="138.68" x2="72.58" y2="138.68"/><line class="cls-4" x1="26.59" y1="129.03" x2="78.19" y2="129.03"/><line class="cls-4" x1="124.16" y1="138.68" x2="164.55" y2="138.68"/><line class="cls-4" x1="118.55" y1="129.03" x2="170.15" y2="129.03"/><line class="cls-4" x1="208.84" y1="138.68" x2="249.23" y2="138.68"/><line class="cls-4" x1="203.24" y1="129.03" x2="254.84" y2="129.03"/><line class="cls-4" x1="32.2" y1="32.87" x2="72.58" y2="32.87"/><line class="cls-4" x1="26.59" y1="23.21" x2="78.19" y2="23.21"/><line class="cls-4" x1="124.16" y1="32.87" x2="164.55" y2="32.87"/><line class="cls-4" x1="118.55" y1="23.21" x2="170.15" y2="23.21"/><line class="cls-4" x1="208.84" y1="32.87" x2="249.23" y2="32.87"/><line class="cls-3" x1="203.24" y1="23.21" x2="254.84" y2="23.21"/><circle class="cls-5" cx="52.39" cy="83.07" r="33.64"/><circle class="cls-5" cx="144.35" cy="83.07" r="33.64"/><circle class="cls-5" cx="229.44" cy="83.07" r="33.64"/></g></svg>