<svg xmlns="http://www.w3.org/2000/svg" viewBox="0 0 189.17 119.13"><defs><style>.cls-1{fill:#fff;}</style></defs><g id="Layer_1" data-name="Layer 1"><path class="cls-1" d="M45.74,19.7h0a4.51,4.51,0,0,1,4.51,4.51v93.1a0,0,0,0,1,0,0h-9a0,0,0,0,1,0,0V24.21A4.51,4.51,0,0,1,45.74,19.7Z"/><path class="cls-1" d="M62.69,3h0A4.51,4.51,0,0,1,67.2,7.54V117.32a0,0,0,0,1,0,0h-9a0,0,0,0,1,0,0V7.54A4.51,4.51,0,0,1,62.69,3Z"/><path class="cls-1" d="M96.58,39h0a4.51,4.51,0,0,1,4.51,4.51v73.8a0,0,0,0,1,0,0h-9a0,0,0,0,1,0,0V43.52A4.51,4.51,0,0,1,96.58,39Z"/><path class="cls-1" d="M164.36,33.27h0a4.51,4.51,0,0,1,4.51,4.51v79.54a0,0,0,0,1,0,0h-9a0,0,0,0,1,0,0V37.78a4.51,4.51,0,0,1,4.51-4.51Z"/></g></svg>