<svg xmlns="http://www.w3.org/2000/svg" viewBox="0 0 256.44 157.84"><defs><style>.cls-1{fill:#eb8430;}.cls-1,.cls-2{stroke:#fff;stroke-miterlimit:10;stroke-width:0.83px;}.cls-2{fill:none;}.cls-3{fill:#fff;}</style></defs><g id="Layer_1" data-name="Layer 1"><rect class="cls-1" x="49.71" y="-48.89" width="157.01" height="255.61" rx="4.17" transform="translate(49.3 207.14) rotate(-90)"/><polyline class="cls-2" points="26.09 22.73 26.09 137.02 226.04 137.02"/><path class="cls-2" d="M45.3,49.45h0A4.51,4.51,0,0,1,49.81,54V137a0,0,0,0,1,0,0h-9a0,0,0,0,1,0,0V54A4.51,4.51,0,0,1,45.3,49.45Z"/><path class="cls-2" d="M62.25,42.23h0a4.51,4.51,0,0,1,4.51,4.51V137a0,0,0,0,1,0,0h-9a0,0,0,0,1,0,0V46.74a4.51,4.51,0,0,1,4.51-4.51Z"/><path class="cls-3" d="M79.19,39.41h0a4.51,4.51,0,0,1,4.51,4.51V137a0,0,0,0,1,0,0h-9a0,0,0,0,1,0,0V43.92a4.51,4.51,0,0,1,4.51-4.51Z"/><path class="cls-3" d="M96.14,22.73h0a4.51,4.51,0,0,1,4.51,4.51V137a0,0,0,0,1,0,0h-9a0,0,0,0,1,0,0V27.24a4.51,4.51,0,0,1,4.51-4.51Z"/><path class="cls-2" d="M113.08,22.73h0a4.51,4.51,0,0,1,4.51,4.51V137a0,0,0,0,1,0,0h-9a0,0,0,0,1,0,0V27.24a4.51,4.51,0,0,1,4.51-4.51Z"/><path class="cls-3" d="M130,58.71h0a4.51,4.51,0,0,1,4.51,4.51V137a0,0,0,0,1,0,0h-9a0,0,0,0,1,0,0V63.22A4.51,4.51,0,0,1,130,58.71Z"/><path class="cls-2" d="M147,22.73h0a4.51,4.51,0,0,1,4.51,4.51V137a0,0,0,0,1,0,0h-9a0,0,0,0,1,0,0V27.24A4.51,4.51,0,0,1,147,22.73Z"/><path class="cls-2" d="M163.92,42.23h0a4.51,4.51,0,0,1,4.51,4.51V137a0,0,0,0,1,0,0h-9a0,0,0,0,1,0,0V46.74a4.51,4.51,0,0,1,4.51-4.51Z"/><path class="cls-2" d="M180.86,42.23h0a4.51,4.51,0,0,1,4.51,4.51V137a0,0,0,0,1,0,0h-9a0,0,0,0,1,0,0V46.74A4.51,4.51,0,0,1,180.86,42.23Z"/><path class="cls-3" d="M197.81,53h0a4.51,4.51,0,0,1,4.51,4.51V137a0,0,0,0,1,0,0h-9a0,0,0,0,1,0,0V57.49A4.51,4.51,0,0,1,197.81,53Z"/><path class="cls-2" d="M214.75,22.73h0a4.51,4.51,0,0,1,4.51,4.51V137a0,0,0,0,1,0,0h-9a0,0,0,0,1,0,0V27.24A4.51,4.51,0,0,1,214.75,22.73Z"/><circle class="cls-3" cx="26.09" cy="22.73" r="2.71"/><circle class="cls-3" cx="26.09" cy="137.02" r="2.71"/><circle class="cls-3" cx="226.6" cy="137.02" r="2.71"/></g></svg>