<svg xmlns="http://www.w3.org/2000/svg" viewBox="0 0 257 159"><defs><style>.cls-1{fill:#eb8430;}.cls-1,.cls-2,.cls-3{stroke:#fff;stroke-miterlimit:10;}.cls-1,.cls-2{stroke-width:0.83px;}.cls-2,.cls-3{fill:none;}.cls-4{fill:#fff;}</style></defs><g id="Layer_1" data-name="Layer 1"><rect class="cls-1" x="50.19" y="-47.66" width="157.01" height="255.61" rx="4.17" transform="translate(48.55 208.85) rotate(-90)"/><polyline class="cls-2" points="26.57 23.96 26.57 138.25 226.52 138.25"/><path class="cls-2" d="M45.78,50.68h0a4.51,4.51,0,0,1,4.51,4.51v83.06a0,0,0,0,1,0,0h-9a0,0,0,0,1,0,0V55.19A4.51,4.51,0,0,1,45.78,50.68Z"/><path class="cls-2" d="M62.73,43.46h0A4.51,4.51,0,0,1,67.24,48v90.28a0,0,0,0,1,0,0h-9a0,0,0,0,1,0,0V48a4.51,4.51,0,0,1,4.51-4.51Z"/><path class="cls-3" d="M79.67,40.64h0a4.51,4.51,0,0,1,4.51,4.51v93.1a0,0,0,0,1,0,0h-9a0,0,0,0,1,0,0V45.15a4.51,4.51,0,0,1,4.51-4.51Z"/><path class="cls-3" d="M96.62,24h0a4.51,4.51,0,0,1,4.51,4.51V138.25a0,0,0,0,1,0,0h-9a0,0,0,0,1,0,0V28.47A4.51,4.51,0,0,1,96.62,24Z"/><path class="cls-2" d="M113.56,24h0a4.51,4.51,0,0,1,4.51,4.51V138.25a0,0,0,0,1,0,0h-9a0,0,0,0,1,0,0V28.47A4.51,4.51,0,0,1,113.56,24Z"/><path class="cls-3" d="M130.51,59.95h0A4.51,4.51,0,0,1,135,64.46v73.8a0,0,0,0,1,0,0h-9a0,0,0,0,1,0,0V64.46a4.51,4.51,0,0,1,4.51-4.51Z"/><path class="cls-2" d="M147.45,24h0A4.51,4.51,0,0,1,152,28.47V138.25a0,0,0,0,1,0,0h-9a0,0,0,0,1,0,0V28.47A4.51,4.51,0,0,1,147.45,24Z"/><path class="cls-2" d="M164.4,43.46h0A4.51,4.51,0,0,1,168.91,48v90.28a0,0,0,0,1,0,0h-9a0,0,0,0,1,0,0V48A4.51,4.51,0,0,1,164.4,43.46Z"/><path class="cls-2" d="M181.34,43.46h0A4.51,4.51,0,0,1,185.85,48v90.28a0,0,0,0,1,0,0h-9a0,0,0,0,1,0,0V48a4.51,4.51,0,0,1,4.51-4.51Z"/><path class="cls-3" d="M198.29,54.21h0a4.51,4.51,0,0,1,4.51,4.51v79.54a0,0,0,0,1,0,0h-9a0,0,0,0,1,0,0V58.72a4.51,4.51,0,0,1,4.51-4.51Z"/><path class="cls-2" d="M215.23,24h0a4.51,4.51,0,0,1,4.51,4.51V138.25a0,0,0,0,1,0,0h-9a0,0,0,0,1,0,0V28.47A4.51,4.51,0,0,1,215.23,24Z"/><circle class="cls-4" cx="26.57" cy="23.96" r="2.71"/><circle class="cls-4" cx="26.57" cy="138.25" r="2.71"/><circle class="cls-4" cx="227.08" cy="138.25" r="2.71"/></g></svg>