<svg xmlns="http://www.w3.org/2000/svg" viewBox="0 0 180.72 81.19"><defs><style>.cls-1,.cls-2{fill:#eb8430;}.cls-1,.cls-2,.cls-4{stroke:#fff;stroke-miterlimit:10;}.cls-1{stroke-width:0.53px;}.cls-2,.cls-4{stroke-width:1.58px;}.cls-3{fill:#fff;}.cls-4{fill:none;}</style></defs><g id="Layer_1" data-name="Layer 1"><path class="cls-1" d="M54.61-44.92h65.18a6.32,6.32,0,0,1,6.32,6.32V129.92a5.35,5.35,0,0,1-5.35,5.35H54.61a0,0,0,0,1,0,0V-44.92A0,0,0,0,1,54.61-44.92Z" transform="translate(45.18 135.53) rotate(-90)"/><path class="cls-2" d="M170.66,80.92a78.52,78.52,0,0,0-157,0Z"/><path class="cls-3" d="M93.75,80.92,68.92,53.13A1.68,1.68,0,0,0,66.18,55L79.75,80.92Z"/><line class="cls-4" x1="92.15" y1="2.41" x2="92.15" y2="20.26"/><line class="cls-4" x1="34.2" y1="29.04" x2="46.82" y2="41.67"/><line class="cls-4" x1="150.78" y1="29.04" x2="138.15" y2="41.67"/><line class="cls-4" x1="14.64" y1="67.08" x2="32.49" y2="67.08"/><line class="cls-4" x1="143.42" y1="67.08" x2="161.27" y2="67.08"/></g></svg>