<svg xmlns="http://www.w3.org/2000/svg" viewBox="0 0 180.72 80.31"><defs><style>.cls-1,.cls-2{fill:#eb8430;}.cls-1,.cls-2,.cls-4{stroke:#fff;stroke-miterlimit:10;}.cls-1{stroke-width:0.53px;}.cls-2,.cls-4{stroke-width:1.58px;}.cls-3{fill:#fff;}.cls-4{fill:none;}</style></defs><g id="Layer_1" data-name="Layer 1"><path class="cls-1" d="M54.61-45.79h65.18a6.32,6.32,0,0,1,6.32,6.32V129.05a5.35,5.35,0,0,1-5.35,5.35H54.61a0,0,0,0,1,0,0V-45.79A0,0,0,0,1,54.61-45.79Z" transform="translate(46.06 134.66) rotate(-90)"/><path class="cls-2" d="M170.66,80.05a78.52,78.52,0,0,0-157,0Z"/><path class="cls-3" d="M92.15,80.05,117,52.26a1.69,1.69,0,0,1,2.75,1.91L106.15,80.05Z"/><line class="cls-4" x1="92.15" y1="1.54" x2="92.15" y2="19.39"/><line class="cls-4" x1="34.2" y1="28.17" x2="46.82" y2="40.79"/><line class="cls-4" x1="150.78" y1="28.17" x2="138.15" y2="40.79"/><line class="cls-4" x1="14.64" y1="66.21" x2="32.49" y2="66.21"/><line class="cls-4" x1="143.42" y1="66.21" x2="161.27" y2="66.21"/></g></svg>