<svg id="Layer_1" data-name="Layer 1" xmlns="http://www.w3.org/2000/svg" viewBox="0 0 26.15 26.15"><defs><style>.cls-1{fill:white;}</style></defs>

<g id="Grupo_3307" data-name="Grupo 3307">

<g id="Grupo_1" data-name="Grupo 1">
<g id="Trazado_1" data-name="Trazado 1">

<path class="cls-1" d="M14.55,19.19A.74.74,0,0,1,14,19a.75.75,0,0,1,0-1.06l5.24-5.24L14,7.44a.75.75,0,0,1,0-1.06.74.74,0,0,1,1.06,0l5.77,5.76a.75.75,0,0,1,0,1.06L15.08,19A.74.74,0,0,1,14.55,19.19Z"/></g><g id="Línea_1" data-name="Línea 1">

<path class="cls-1" d="M20.31,13.46h-15a.75.75,0,1,1,0-1.5H20.31a.75.75,0,0,1,0,1.5Z"/></g></g><g id="Elipse_2" data-name="Elipse 2">


</g></g>
</svg>