<svg id="Capa_1" data-name="Capa 1" xmlns="http://www.w3.org/2000/svg" xmlns:xlink="http://www.w3.org/1999/xlink" viewBox="0 0 401.69 400.06"><defs><style>.cls-1{fill:none;}.cls-2{clip-path:url(#clip-path);}.cls-3,.cls-5{opacity:0.67;isolation:isolate;}.cls-3{fill:url(#Degradado_sin_nombre_3);}.cls-4{clip-path:url(#clip-path-2);}.cls-5{fill:url(#Degradado_sin_nombre_3-2);}</style><clipPath id="clip-path"><path class="cls-1" d="M-275.72,808.09C-93.21,702.76-30.65,469.41-136,286.91S-474.66,41.84-657.16,147.17-902.23,485.85-796.9,668.35-458.23,913.42-275.72,808.09ZM-726.63,627.8c-82.81-143.48-33.46-327.56,110-410.37S-289,184-206.24,327.46s33.45,327.56-110,410.37-327.56,33.44-410.36-110Z"/></clipPath><linearGradient id="Degradado_sin_nombre_3" x1="-580.15" y1="1859.65" x2="-579.15" y2="1859.65" gradientTransform="matrix(0, 921.83, 813.7, 0, -1513663.53, 534818.18)" gradientUnits="userSpaceOnUse"><stop offset="0" stop-color="#93358d"/><stop offset="1" stop-color="#008fbe"/></linearGradient><clipPath id="clip-path-2"><path class="cls-1" d="M300,370.16c94-54.24,126.19-174.39,72-268.37S197.52-24.4,103.54,29.84-22.65,204.23,31.59,298.21,206,424.4,300,370.16ZM67.77,277.32C25.13,203.44,50.55,108.65,124.43,66s168.67-17.22,211.3,56.66S353,291.34,279.08,334,110.41,351.2,67.77,277.33Z"/></clipPath><linearGradient id="Degradado_sin_nombre_3-2" x1="-581.49" y1="1861.32" x2="-580.49" y2="1861.32" gradientTransform="matrix(0, 474.67, 418.99, 0, -779682.47, 275981.11)" xlink:href="#Degradado_sin_nombre_3"/></defs><g class="cls-2"><g id="Enmascarar_grupo_18" data-name="Enmascarar grupo 18"><rect id="Rect치ngulo_2333" data-name="Rect치ngulo 2333" class="cls-3" x="-875.04" y="24.54" width="813.7" height="921.83" transform="matrix(0.26, -0.97, 0.97, 0.26, -815.84, -92.49)"/></g></g><g class="cls-4"><g id="Enmascarar_grupo_19" data-name="Enmascarar grupo 19"><rect id="Rect치ngulo_2334" data-name="Rect치ngulo 2334" class="cls-5" x="-8.65" y="-33.31" width="418.99" height="474.67" transform="translate(-48.24 345.19) rotate(-74.99)"/></g></g></svg>