<svg id="Capa_1" data-name="Capa 1" xmlns="http://www.w3.org/2000/svg" xmlns:xlink="http://www.w3.org/1999/xlink" viewBox="0 0 775.1 776.67"><defs><style>.cls-1{fill:none;}.cls-2{clip-path:url(#clip-path);}.cls-3,.cls-5{opacity:0.67;isolation:isolate;}.cls-3{fill:url(#Degradado_sin_nombre_3);}.cls-4{clip-path:url(#clip-path-2);}.cls-5{fill:url(#Degradado_sin_nombre_3-2);}</style><clipPath id="clip-path"><path class="cls-1" d="M580,718C762.53,612.64,825.1,379.29,719.76,196.79S381.09-48.28,198.58,57.05-46.49,395.72,58.85,578.23,397.52,823.3,580,718ZM129.11,537.68C46.3,394.2,95.66,210.12,239.14,127.31s327.56-33.45,410.37,110S683,564.9,539.48,647.7s-327.56,33.45-410.37-110Z"/></clipPath><linearGradient id="Degradado_sin_nombre_3" x1="275.6" y1="1769.53" x2="276.6" y2="1769.53" gradientTransform="matrix(0, 921.83, 813.7, 0, -1439475.53, -254122.14)" gradientUnits="userSpaceOnUse"><stop offset="0" stop-color="#93358d"/><stop offset="1" stop-color="#008fbe"/></linearGradient><clipPath id="clip-path-2"><path class="cls-1" d="M1155.7,280c94-54.24,126.2-174.39,72-268.37S1053.27-114.52,959.29-60.28,833.1,114.11,887.34,208.09,1061.73,334.28,1155.7,280ZM923.52,187.2c-42.64-73.88-17.23-168.67,56.65-211.31s168.67-17.22,211.31,56.66,17.22,168.67-56.66,211.31-168.66,17.22-211.3-56.66Z"/></clipPath><linearGradient id="Degradado_sin_nombre_3-2" x1="274.26" y1="1771.2" x2="275.26" y2="1771.2" gradientTransform="matrix(0, 474.67, 418.99, 0, -741066.16, -130307.13)" xlink:href="#Degradado_sin_nombre_3"/></defs><g class="cls-2"><g id="Enmascarar_grupo_18" data-name="Enmascarar grupo 18"><rect id="Rect치ngulo_2333" data-name="Rect치ngulo 2333" class="cls-3" x="-19.3" y="-65.58" width="813.7" height="921.83" transform="matrix(0.26, -0.97, 0.97, 0.26, -94.66, 667.28)"/></g></g><g class="cls-4"><g id="Enmascarar_grupo_19" data-name="Enmascarar grupo 19"><rect id="Rect치ngulo_2334" data-name="Rect치ngulo 2334" class="cls-5" x="847.1" y="-123.43" width="418.99" height="474.67" transform="translate(672.95 1104.96) rotate(-74.99)"/></g></g></svg>